<svg xmlns="http://www.w3.org/2000/svg"
     width="2.56in" height="2.56in"
     viewBox="0 0 768 768">
  <path id="export_black"
      fill="black"
      d="M 384.00,224.00
           C 384.00,224.00 480.00,272.00 480.00,272.00
             480.00,272.00 480.00,368.00 480.00,368.00
             480.00,368.00 384.00,416.00 384.00,416.00
             384.00,416.00 288.00,368.00 288.00,368.00
             288.00,368.00 288.00,272.00 288.00,272.00
             288.00,272.00 384.00,224.00 384.00,224.00 Z" />
  <path id="export_fill_exclude"
        fill="#ffab00" fill-rule="evenodd"
        d="M 384.00,0.00
           C 384.00,0.00 128.00,128.00 128.00,128.00
             128.00,128.00 128.00,384.00 128.00,384.00
             128.00,384.00 384.00,512.00 384.00,512.00
             384.00,512.00 640.00,384.00 640.00,384.00
             640.00,384.00 640.00,128.00 640.00,128.00
             640.00,128.00 384.00,0.00 384.00,0.00 Z
           M 672.00,336.00
           C 672.00,336.00 672.00,400.00 672.00,400.00
             672.00,400.00 384.00,544.00 384.00,544.00
             384.00,544.00 256.00,480.00 256.00,480.00
             256.00,480.00 256.00,640.00 256.00,640.00
             256.00,640.00 512.00,768.00 512.00,768.00
             512.00,768.00 768.00,640.00 768.00,640.00
             768.00,640.00 768.00,384.00 768.00,384.00
             768.00,384.00 672.00,336.00 672.00,336.00 Z
           M 352.00,720.00
           C 352.00,720.00 256.00,768.00 256.00,768.00
             256.00,768.00 0.00,640.00 0.00,640.00
             0.00,640.00 0.00,384.00 0.00,384.00
             0.00,384.00 96.00,336.00 96.00,336.00
             96.00,336.00 96.00,400.00 96.00,400.00
             96.00,400.00 224.00,464.00 224.00,464.00
             224.00,464.00 224.00,656.00 224.00,656.00
             224.00,656.00 352.00,720.00 352.00,720.00 Z
           M 512.00,512.00
           C 512.00,512.00 480.00,528.00 480.00,528.00
             480.00,528.00 480.00,624.00 480.00,624.00
             480.00,624.00 384.00,672.00 384.00,672.00
             384.00,672.00 416.00,688.00 416.00,688.00
             416.00,688.00 512.00,640.00 512.00,640.00
             512.00,640.00 512.00,512.00 512.00,512.00 Z
           M 608.00,336.00
           C 608.00,336.00 608.00,304.00 608.00,304.00
             608.00,304.00 384.00,192.00 384.00,192.00
             384.00,192.00 256.00,256.00 256.00,256.00
             256.00,256.00 256.00,416.00 256.00,416.00
             256.00,416.00 288.00,432.00 288.00,432.00
             288.00,432.00 288.00,400.00 288.00,400.00
             288.00,400.00 384.00,448.00 384.00,448.00
             384.00,448.00 512.00,384.00 512.00,384.00
             512.00,384.00 512.00,288.00 512.00,288.00
             512.00,288.00 608.00,336.00 608.00,336.00 Z" />
</svg>
